<svg width="20" height="20" viewBox="0 0 20 20" fill="none" xmlns="http://www.w3.org/2000/svg">
<path d="M17.1554 4.91229C14.8272 3.17029 12.5968 3.21909 12.5968 3.21909L12.3688 3.47949C15.1366 4.30989 16.4228 5.53089 16.4228 5.53089C12.463 3.35069 7.419 3.36629 3.3002 5.53089C3.3002 5.53089 4.6352 4.24469 7.5658 3.41429L7.403 3.21889C7.403 3.21889 5.1888 3.17009 2.8444 4.91209C2.8444 4.91209 0.5 9.12889 0.5 14.3225C0.5 14.3225 1.8676 16.6669 5.4658 16.7809C5.4658 16.7809 6.0682 16.0645 6.5566 15.4459C4.4888 14.8273 3.7074 13.5411 3.7074 13.5411C5.0064 14.3539 6.32 14.8627 7.9568 15.1855C10.62 15.7337 13.9326 15.1701 16.4066 13.5411C16.4066 13.5411 15.5926 14.8599 13.4598 15.4623C13.9482 16.0647 14.5344 16.7647 14.5344 16.7647C18.1322 16.6509 19.4998 14.3065 19.4998 14.3227C19.4998 9.12909 17.1554 4.91229 17.1554 4.91229ZM6.9634 12.8087C6.0516 12.8087 5.3028 12.0109 5.3028 11.0177C5.3694 8.63929 8.5742 8.64669 8.6242 11.0177C8.624 12.0109 7.8914 12.8087 6.9634 12.8087ZM12.906 12.8087C11.9942 12.8087 11.2454 12.0109 11.2454 11.0177C11.3186 8.64389 14.4834 8.64289 14.5668 11.0177C14.5666 12.0109 13.834 12.8087 12.906 12.8087Z" fill="url(#paint0_linear_1_509)"/>
<defs>
<linearGradient id="paint0_linear_1_509" x1="19.4998" y1="3.21875" x2="0.0951031" y2="3.82519" gradientUnits="userSpaceOnUse">
<stop stop-color="#ADFF00"/>
<stop offset="1" stop-color="#FFFF08"/>
</linearGradient>
</defs>
</svg>
