<svg width="14" height="8" viewBox="0 0 14 8" fill="none" xmlns="http://www.w3.org/2000/svg">
<path fill-rule="evenodd" clip-rule="evenodd" d="M0.204037 0.25656C-0.0689631 0.54006 -0.0689631 0.998563 0.204037 1.28136L5.98895 7.27546C6.11646 7.40964 6.26968 7.51648 6.43978 7.58949C6.60987 7.6625 6.79335 7.70012 6.97845 7.70012C7.16355 7.70012 7.34668 7.6625 7.51678 7.58949C7.68688 7.51648 7.8401 7.40964 7.96761 7.27546L13.7952 1.23797C13.9255 1.10094 13.9987 0.919488 14 0.730451C14.0013 0.541413 13.9304 0.35896 13.8021 0.220159C13.7387 0.151399 13.662 0.096388 13.5765 0.058521C13.491 0.020654 13.3986 0.000742164 13.3051 2.03261e-05C13.2116 -0.000701512 13.1191 0.0177808 13.033 0.0543233C12.947 0.0908658 12.8692 0.144685 12.8047 0.212458L7.47269 5.73825C7.40893 5.8054 7.33218 5.85886 7.2471 5.89539C7.16202 5.93193 7.0707 5.95079 6.97811 5.95079C6.88551 5.95079 6.79385 5.93193 6.70877 5.89539C6.62369 5.85886 6.54695 5.8054 6.48319 5.73825L1.1932 0.25656C1.1295 0.189437 1.05263 0.135989 0.967611 0.0994613C0.882587 0.0629336 0.791154 0.0440902 0.698617 0.0440902C0.606079 0.0440902 0.514646 0.0629336 0.429623 0.0994613C0.3446 0.135989 0.267736 0.189437 0.204037 0.25656Z" fill="white"/>
</svg>
