<svg width="24" height="24" viewBox="0 0 24 24" fill="none" xmlns="http://www.w3.org/2000/svg">
<path d="M11.9987 2.83398C10.1857 2.83398 8.41342 3.3716 6.90597 4.37885C5.39852 5.38609 4.22361 6.81773 3.52981 8.49272C2.836 10.1677 2.65447 12.0108 3.00817 13.789C3.36187 15.5671 4.23491 17.2005 5.51689 18.4825C6.79887 19.7644 8.43222 20.6375 10.2104 20.9912C11.9885 21.3449 13.8316 21.1634 15.5066 20.4695C17.1816 19.7757 18.6133 18.6008 19.6205 17.0934C20.6278 15.5859 21.1654 13.8136 21.1654 12.0007C21.1654 10.7969 20.9283 9.60487 20.4676 8.49272C20.0069 7.38057 19.3317 6.37004 18.4805 5.51884C17.6293 4.66764 16.6188 3.99242 15.5066 3.53176C14.3945 3.07109 13.2025 2.83398 11.9987 2.83398ZM11.9987 19.334C10.5483 19.334 9.13048 18.9039 7.92452 18.0981C6.71856 17.2923 5.77863 16.147 5.22359 14.807C4.66854 13.467 4.52332 11.9925 4.80628 10.57C5.08924 9.14746 5.78767 7.84079 6.81325 6.8152C7.83884 5.78962 9.14551 5.09118 10.568 4.80823C11.9906 4.52527 13.4651 4.67049 14.805 5.22553C16.145 5.78058 17.2903 6.72051 18.0961 7.92647C18.9019 9.13243 19.332 10.5503 19.332 12.0007C19.332 13.9456 18.5594 15.8108 17.1842 17.1861C15.8089 18.5614 13.9436 19.334 11.9987 19.334Z" fill="white"/>
<path d="M11.9987 9.24935C12.505 9.24935 12.9154 8.83894 12.9154 8.33268C12.9154 7.82642 12.505 7.41602 11.9987 7.41602C11.4924 7.41602 11.082 7.82642 11.082 8.33268C11.082 8.83894 11.4924 9.24935 11.9987 9.24935Z" fill="white"/>
<path d="M11.9987 10.166C11.7556 10.166 11.5224 10.2626 11.3505 10.4345C11.1786 10.6064 11.082 10.8396 11.082 11.0827V15.666C11.082 15.9091 11.1786 16.1423 11.3505 16.3142C11.5224 16.4861 11.7556 16.5827 11.9987 16.5827C12.2418 16.5827 12.475 16.4861 12.6469 16.3142C12.8188 16.1423 12.9154 15.9091 12.9154 15.666V11.0827C12.9154 10.8396 12.8188 10.6064 12.6469 10.4345C12.475 10.2626 12.2418 10.166 11.9987 10.166Z" fill="white"/>
</svg>
