<svg width="18" height="20" viewBox="0 0 18 20" fill="none" xmlns="http://www.w3.org/2000/svg">
<path d="M9.16395 0.905982L9.13066 0.893921L9.09721 0.90549L1.56303 3.51047L1.56291 3.51051L0.988021 3.71006H0.9V3.81006V16.6616V16.6967L0.876608 16.7668L0.968833 16.7997L1.55721 17.0097L1.59082 16.9155L1.55722 17.0097L8.65439 19.5415L8.68685 19.553L8.71955 19.5422L16.6907 16.8908L16.6908 16.8908L17.2841 16.693L17.3789 16.6614L17.35 16.5746V15.1949L17.3537 15.1846L17.3917 15.0803L17.35 15.0699V3.99827L17.3564 3.98041L17.3898 3.88668L17.2963 3.85276L16.7103 3.64036L16.7103 3.64036L9.16395 0.905982ZM2.35 4.77241L8.4 2.6809V12.4271L2.35 14.4572V4.77241ZM9.85 12.4331V2.69535L15.9 4.88848V14.5648L9.85 12.4331ZM2.68533 15.8735L9.11932 13.7156L15.2029 15.8581L8.70377 18.0183L2.68533 15.8735Z" fill="white" stroke="white" stroke-width="0.2"/>
</svg>
