<svg width="22" height="22" viewBox="0 0 22 22" fill="none" xmlns="http://www.w3.org/2000/svg">
<path d="M19.5022 14.5911C18.915 15.9798 17.9965 17.2036 16.827 18.1553C15.6576 19.1071 14.2728 19.7579 12.7937 20.0509C11.3146 20.3438 9.78629 20.27 8.34235 19.8358C6.8984 19.4016 5.58279 18.6204 4.51054 17.5603C3.43829 16.5002 2.64204 15.1936 2.19141 13.7547C1.74079 12.3158 1.6495 10.7884 1.92553 9.30612C2.20157 7.82379 2.83651 6.43165 3.77487 5.2514C4.71322 4.07116 5.92641 3.13875 7.30837 2.53569M20.2314 11.0003C20.2314 8.55215 19.2589 6.20427 17.5278 4.47316C15.7967 2.74206 13.4488 1.76953 11.0007 1.76953V11.0003H20.2314Z" stroke="white" stroke-width="2" stroke-linecap="round" stroke-linejoin="round"/>
</svg>
