<svg width="8" height="14" viewBox="0 0 8 14" fill="none" xmlns="http://www.w3.org/2000/svg">
<path fill-rule="evenodd" clip-rule="evenodd" d="M0.25656 13.796C0.54006 14.069 0.998563 14.069 1.28136 13.796L7.27546 8.01105C7.40964 7.88354 7.51648 7.73032 7.58949 7.56022C7.6625 7.39012 7.70013 7.20665 7.70013 7.02155C7.70013 6.83645 7.6625 6.65332 7.58949 6.48322C7.51648 6.31312 7.40964 6.1599 7.27546 6.03239L1.23797 0.204754C1.10094 0.0745171 0.919488 0.0013177 0.730451 1.75789e-05C0.541413 -0.00128254 0.35896 0.0695782 0.220159 0.197918C0.151399 0.261296 0.096388 0.338001 0.058521 0.423504C0.020654 0.509007 0.00074219 0.60138 2.03565e-05 0.694891C-0.000701477 0.788401 0.0177808 0.880883 0.0543233 0.966961C0.0908658 1.05304 0.144685 1.13085 0.212458 1.19528L5.73825 6.52731C5.8054 6.59107 5.85886 6.66782 5.8954 6.7529C5.93193 6.83798 5.95079 6.9293 5.95079 7.02189C5.95079 7.11449 5.93193 7.20615 5.8954 7.29123C5.85886 7.37631 5.8054 7.45305 5.73825 7.51681L0.25656 12.8068C0.189437 12.8705 0.13599 12.9474 0.0994619 13.0324C0.0629342 13.1174 0.0440908 13.2088 0.0440908 13.3014C0.0440908 13.3939 0.0629342 13.4854 0.0994619 13.5704C0.13599 13.6554 0.189437 13.7323 0.25656 13.796Z" fill="white"/>
</svg>
