<svg width="20" height="20" viewBox="0 0 20 20" fill="none" xmlns="http://www.w3.org/2000/svg">
<path d="M18.3346 4.83253C17.7082 5.10428 17.0458 5.28392 16.368 5.36586C17.0831 4.93863 17.619 4.26652 17.8763 3.4742C17.2043 3.87425 16.4686 4.15611 15.7013 4.30753C15.1884 3.75134 14.5054 3.38111 13.7595 3.25491C13.0135 3.1287 12.2468 3.25366 11.5795 3.61019C10.9122 3.96672 10.3821 4.53464 10.0723 5.22489C9.76259 5.91515 9.69071 6.68869 9.86797 7.4242C8.50916 7.35547 7.18 7.00166 5.96685 6.38575C4.75369 5.76984 3.68367 4.90561 2.8263 3.8492C2.52558 4.37434 2.36757 4.96905 2.36797 5.5742C2.3669 6.13618 2.50482 6.68971 2.76943 7.1855C3.03405 7.68129 3.41715 8.10396 3.88463 8.41586C3.34128 8.40108 2.80954 8.25528 2.33464 7.99086V8.03253C2.33871 8.81994 2.61463 9.58177 3.11573 10.1892C3.61683 10.7966 4.31235 11.2122 5.08463 11.3659C4.78735 11.4563 4.4787 11.504 4.16797 11.5075C3.95288 11.505 3.73832 11.4855 3.5263 11.4492C3.74623 12.1265 4.17182 12.7185 4.74386 13.1427C5.31591 13.5668 6.00595 13.8022 6.71797 13.8159C5.51564 14.7619 4.0312 15.2782 2.5013 15.2825C2.22275 15.2834 1.94442 15.2667 1.66797 15.2325C3.22999 16.2411 5.05031 16.7765 6.90963 16.7742C8.19271 16.7875 9.46558 16.545 10.6539 16.0609C11.8422 15.5768 12.9222 14.8608 13.8306 13.9546C14.7391 13.0485 15.4579 11.9704 15.9451 10.7833C16.4323 9.59622 16.678 8.32397 16.668 7.04086C16.668 6.8992 16.668 6.7492 16.668 6.5992C17.3219 6.11154 17.8859 5.51372 18.3346 4.83253Z" fill="url(#paint0_linear_1_504)"/>
<defs>
<linearGradient id="paint0_linear_1_504" x1="18.3346" y1="3.20703" x2="1.30895" y2="3.67359" gradientUnits="userSpaceOnUse">
<stop stop-color="#ADFF00"/>
<stop offset="1" stop-color="#FFFF08"/>
</linearGradient>
</defs>
</svg>
