<svg width="14" height="14" viewBox="0 0 14 14" fill="none" xmlns="http://www.w3.org/2000/svg">
<path d="M10.3342 1.06447L10.4106 1.21703L10.9871 2.75001C11.0324 2.87074 11.1276 2.96599 11.2483 3.01128L12.7284 3.56656C13.3779 3.81023 13.7269 4.50427 13.5539 5.16092L13.5122 5.29161L12.8237 6.81443C12.7703 6.93182 12.7703 7.06654 12.8237 7.18393L13.4776 8.62313C13.7646 9.2547 13.5206 9.99226 12.9339 10.3342L12.7813 10.4106L11.2483 10.9871C11.1276 11.0324 11.0324 11.1276 10.9871 11.2483L10.4318 12.7284C10.1881 13.3779 9.49409 13.7269 8.83744 13.5539L8.70675 13.5122L7.18393 12.8237C7.06654 12.7703 6.93182 12.7703 6.81443 12.8237L5.37523 13.4776C4.74366 13.7646 4.0061 13.5206 3.66416 12.9339L3.58774 12.7813L3.01128 11.2483C2.96599 11.1276 2.87074 11.0324 2.75001 10.9871L1.26994 10.4318C0.620436 10.1881 0.271413 9.49409 0.444487 8.83744L0.486129 8.70675L1.1747 7.18393C1.22803 7.06654 1.22803 6.93182 1.1747 6.81443L0.520764 5.37523C0.233798 4.74366 0.47776 4.0061 1.06447 3.66416L1.21703 3.58774L2.75001 3.01128C2.87074 2.96599 2.96599 2.87074 3.01128 2.75001L3.56656 1.26994C3.81023 0.620436 4.50427 0.271413 5.16092 0.444487L5.29161 0.486129L6.81443 1.1747C6.93182 1.22803 7.06654 1.22803 7.18393 1.1747L8.62313 0.520764C9.2547 0.233798 9.99226 0.47776 10.3342 1.06447ZM9.16308 4.70509L5.97743 8.34584L4.81498 7.18338C4.64057 7.00898 4.35779 7.00898 4.18339 7.18338C4.00898 7.35779 4.00898 7.64057 4.18339 7.81498L5.68338 9.31498C5.86606 9.49765 6.16516 9.48769 6.33528 9.29327L9.83528 5.29327C9.9977 5.10765 9.97889 4.8255 9.79327 4.66308C9.60765 4.50066 9.3255 4.51947 9.16308 4.70509Z" fill="#ADFF00"/>
</svg>
