<svg width="20" height="20" viewBox="0 0 20 20" fill="none" xmlns="http://www.w3.org/2000/svg">
<path d="M15.9992 18.05H16.0492V18V8.83197V8.81126L16.0346 8.79661L10.0253 2.78764L9.98999 2.75229L9.95463 2.78764L3.96447 8.77763L3.94982 8.79228V8.81299V18V18.05H3.99982H6.99967H7.04967V18V14.05H12.9494V18V18.05H12.9994H15.9992ZM10.0014 0.0706989L17.9491 8.02071V8.02476L17.9638 8.03941L19.9292 10.002L18.5839 11.3454L18.0345 10.7966L17.9491 10.7114V10.832V19.95H11.0495V16V15.95H10.9995H8.99958H8.94958V16V19.95H2.04991V10.813V10.6916L1.96442 10.7778L1.41126 11.3351L0.0706941 9.99205L10.0014 0.0706989Z" fill="black" stroke="#F4FF07" stroke-width="0.1"/>
</svg>
