<svg width="20" height="20" viewBox="0 0 20 20" fill="none" xmlns="http://www.w3.org/2000/svg">
<path d="M12.2097 7.79029C13.4301 9.01067 13.4301 10.9893 12.2097 12.2097C10.9893 13.4301 9.01067 13.4301 7.79029 12.2097C6.5699 10.9893 6.5699 9.01067 7.79029 7.79029C9.01067 6.5699 10.9893 6.5699 12.2097 7.79029Z" fill="#ADFF00"/>
<path d="M13.6452 1.66602H6.35351C3.76867 1.66602 1.66602 3.76867 1.66602 6.35351V13.6452C1.66602 16.23 3.76867 18.3327 6.35351 18.3327H13.6452C16.23 18.3327 18.3327 16.23 18.3327 13.6452V6.35351C18.3327 3.76867 16.23 1.66602 13.6452 1.66602ZM9.99935 14.166C7.70188 14.166 5.83268 12.2973 5.83268 9.99935C5.83268 7.70138 7.70188 5.83268 9.99935 5.83268C12.2968 5.83268 14.166 7.70138 14.166 9.99935C14.166 12.2973 12.2968 14.166 9.99935 14.166ZM14.6868 5.83268C14.3992 5.83268 14.166 5.59948 14.166 5.31185C14.166 5.02416 14.3992 4.79102 14.6868 4.79102C14.9745 4.79102 15.2077 5.02416 15.2077 5.31185C15.2077 5.59948 14.9745 5.83268 14.6868 5.83268Z" fill="url(#paint0_linear_1_515)"/>
<defs>
<linearGradient id="paint0_linear_1_515" x1="18.3327" y1="1.66602" x2="1.30269" y2="2.04592" gradientUnits="userSpaceOnUse">
<stop stop-color="#ADFF00"/>
<stop offset="1" stop-color="#FFFF08"/>
</linearGradient>
</defs>
</svg>
