<svg width="20" height="20" viewBox="0 0 20 20" fill="none" xmlns="http://www.w3.org/2000/svg">
<path d="M9.34787 13.0165C9.30845 13.06 9.27171 13.106 9.23787 13.154C9.20318 13.2051 9.17543 13.2606 9.15537 13.319C9.12894 13.3709 9.1104 13.4266 9.10037 13.484C9.09587 13.545 9.09587 13.6063 9.10037 13.6673C9.09727 13.7876 9.12239 13.9069 9.1737 14.0156C9.21487 14.1294 9.28055 14.2327 9.3661 14.3183C9.45164 14.4038 9.55495 14.4695 9.6687 14.5107C9.77843 14.5591 9.89707 14.5842 10.017 14.5842C10.137 14.5842 10.2556 14.5591 10.3654 14.5107C10.4791 14.4695 10.5824 14.4038 10.668 14.3183C10.7535 14.2327 10.8192 14.1294 10.8604 14.0156C10.9011 13.9042 10.9198 13.7859 10.9154 13.6673C10.9161 13.5467 10.8929 13.4271 10.8473 13.3154C10.8017 13.2037 10.7345 13.1021 10.6495 13.0165C10.5643 12.9306 10.4629 12.8624 10.3512 12.8158C10.2395 12.7693 10.1197 12.7453 9.9987 12.7453C9.87769 12.7453 9.75788 12.7693 9.64617 12.8158C9.53447 12.8624 9.43308 12.9306 9.34787 13.0165ZM9.9987 0.833984C8.18571 0.833984 6.41342 1.3716 4.90597 2.37885C3.39852 3.38609 2.22361 4.81773 1.52981 6.49272C0.836003 8.16771 0.654472 10.0108 1.00817 11.789C1.36187 13.5671 2.23491 15.2005 3.51689 16.4825C4.79887 17.7644 6.43222 18.6375 8.21037 18.9912C9.98853 19.3449 11.8316 19.1634 13.5066 18.4695C15.1816 17.7757 16.6133 16.6008 17.6205 15.0934C18.6278 13.5859 19.1654 11.8136 19.1654 10.0007C19.1654 8.79687 18.9283 7.60487 18.4676 6.49272C18.0069 5.38057 17.3317 4.37004 16.4805 3.51884C15.6293 2.66764 14.6188 1.99242 13.5066 1.53176C12.3945 1.07109 11.2025 0.833984 9.9987 0.833984ZM9.9987 17.334C8.54831 17.334 7.13048 16.9039 5.92452 16.0981C4.71856 15.2923 3.77863 14.147 3.22359 12.807C2.66854 11.467 2.52332 9.99252 2.80628 8.56999C3.08924 7.14746 3.78767 5.84079 4.81325 4.8152C5.83884 3.78962 7.14551 3.09118 8.56804 2.80823C9.99057 2.52527 11.4651 2.67049 12.805 3.22553C14.145 3.78058 15.2903 4.72051 16.0961 5.92647C16.9019 7.13243 17.332 8.55025 17.332 10.0007C17.332 11.9456 16.5594 13.8108 15.1842 15.1861C13.8089 16.5614 11.9436 17.334 9.9987 17.334ZM9.9987 5.41732C9.51568 5.41701 9.04109 5.54393 8.6227 5.78531C8.20431 6.02668 7.85688 6.37401 7.61537 6.79232C7.54904 6.89665 7.50451 7.01332 7.48444 7.13531C7.46438 7.2573 7.4692 7.38209 7.49861 7.50217C7.52802 7.62225 7.58142 7.73514 7.6556 7.83405C7.72977 7.93296 7.82318 8.01584 7.93022 8.07771C8.03725 8.13958 8.1557 8.17916 8.27842 8.19406C8.40115 8.20897 8.52563 8.1989 8.64436 8.16445C8.7631 8.13001 8.87363 8.0719 8.96933 7.99363C9.06502 7.91535 9.1439 7.81853 9.2012 7.70898C9.28196 7.5691 9.39826 7.45303 9.5383 7.37255C9.67835 7.29206 9.83718 7.25001 9.9987 7.25065C10.2418 7.25065 10.475 7.34723 10.6469 7.51914C10.8188 7.69104 10.9154 7.9242 10.9154 8.16732C10.9154 8.41043 10.8188 8.64359 10.6469 8.8155C10.475 8.98741 10.2418 9.08398 9.9987 9.08398C9.75559 9.08398 9.52243 9.18056 9.35052 9.35247C9.17861 9.52438 9.08204 9.75754 9.08204 10.0007V10.9173C9.08204 11.1604 9.17861 11.3936 9.35052 11.5655C9.52243 11.7374 9.75559 11.834 9.9987 11.834C10.2418 11.834 10.475 11.7374 10.6469 11.5655C10.8188 11.3936 10.9154 11.1604 10.9154 10.9173V10.7523C11.5216 10.5323 12.0313 10.1063 12.3552 9.54861C12.6792 8.99095 12.7969 8.33717 12.6876 7.70155C12.5784 7.06593 12.2493 6.48892 11.7578 6.07137C11.2663 5.65383 10.6436 5.42232 9.9987 5.41732Z" fill="white"/>
</svg>
