<svg width="20" height="20" viewBox="0 0 20 20" fill="none" xmlns="http://www.w3.org/2000/svg">
<path d="M9.9987 0.833984C8.18571 0.833984 6.41342 1.3716 4.90597 2.37885C3.39852 3.38609 2.22361 4.81773 1.52981 6.49272C0.836003 8.16771 0.654472 10.0108 1.00817 11.789C1.36187 13.5671 2.23491 15.2005 3.51689 16.4825C4.79887 17.7644 6.43222 18.6375 8.21037 18.9912C9.98853 19.3449 11.8316 19.1634 13.5066 18.4695C15.1816 17.7757 16.6133 16.6008 17.6205 15.0934C18.6278 13.5859 19.1654 11.8136 19.1654 10.0007C19.1654 8.79687 18.9283 7.60487 18.4676 6.49272C18.0069 5.38057 17.3317 4.37004 16.4805 3.51884C15.6293 2.66764 14.6188 1.99242 13.5066 1.53176C12.3945 1.07109 11.2025 0.833984 9.9987 0.833984ZM9.9987 17.334C8.54831 17.334 7.13048 16.9039 5.92452 16.0981C4.71856 15.2923 3.77863 14.147 3.22359 12.807C2.66854 11.467 2.52332 9.99252 2.80628 8.56999C3.08924 7.14746 3.78767 5.84079 4.81325 4.8152C5.83884 3.78962 7.14551 3.09118 8.56804 2.80823C9.99057 2.52527 11.4651 2.67049 12.805 3.22553C14.145 3.78058 15.2903 4.72051 16.0961 5.92647C16.9019 7.13243 17.332 8.55025 17.332 10.0007C17.332 11.9456 16.5594 13.8108 15.1842 15.1861C13.8089 16.5614 11.9436 17.334 9.9987 17.334Z" fill="white"/>
</svg>
