<svg width="16" height="18" viewBox="0 0 16 18" fill="none" xmlns="http://www.w3.org/2000/svg">
<path d="M4.07593 8.75914C4.15339 8.83724 4.24556 8.89924 4.34711 8.94155C4.44866 8.98385 4.55758 9.00564 4.66759 9.00564C4.7776 9.00564 4.88652 8.98385 4.98807 8.94155C5.08962 8.89924 5.18179 8.83724 5.25926 8.75914C5.33737 8.68167 5.39936 8.5895 5.44167 8.48795C5.48398 8.3864 5.50576 8.27748 5.50576 8.16747C5.50576 8.05746 5.48398 7.94854 5.44167 7.84699C5.39936 7.74544 5.33737 7.65327 5.25926 7.5758L3.34259 5.66747H14.6676C14.8886 5.66747 15.1006 5.57967 15.2568 5.42339C15.4131 5.26711 15.5009 5.05515 15.5009 4.83414C15.5009 4.61312 15.4131 4.40116 15.2568 4.24488C15.1006 4.0886 14.8886 4.00081 14.6676 4.00081H3.34259L5.25926 2.09247C5.41618 1.93555 5.50434 1.72272 5.50434 1.50081C5.50434 1.27889 5.41618 1.06606 5.25926 0.909139C5.10234 0.752219 4.88951 0.664063 4.66759 0.664063C4.44567 0.664062 4.23285 0.752219 4.07593 0.909139L0.742592 4.24247C0.664485 4.31994 0.60249 4.41211 0.560183 4.51366C0.517876 4.61521 0.496094 4.72413 0.496094 4.83414C0.496094 4.94415 0.517876 5.05307 0.560183 5.15462C0.60249 5.25617 0.664485 5.34834 0.742592 5.42581L4.07593 8.75914ZM11.9259 9.24247C11.769 9.08555 11.5562 8.99739 11.3343 8.99739C11.1123 8.99739 10.8995 9.08555 10.7426 9.24247C10.5857 9.39939 10.4975 9.61222 10.4975 9.83414C10.4975 10.0561 10.5857 10.2689 10.7426 10.4258L12.6593 12.3341H1.33426C1.11325 12.3341 0.901284 12.4219 0.745003 12.5782C0.588723 12.7345 0.500926 12.9465 0.500926 13.1675C0.500926 13.3885 0.588723 13.6004 0.745003 13.7567C0.901284 13.913 1.11325 14.0008 1.33426 14.0008H12.6593L10.7426 15.9091C10.6645 15.9866 10.6025 16.0788 10.5602 16.1803C10.5179 16.2819 10.4961 16.3908 10.4961 16.5008C10.4961 16.6108 10.5179 16.7197 10.5602 16.8213C10.6025 16.9228 10.6645 17.015 10.7426 17.0925C10.8201 17.1706 10.9122 17.2326 11.0138 17.2749C11.1153 17.3172 11.2242 17.339 11.3343 17.339C11.4443 17.339 11.5532 17.3172 11.6547 17.2749C11.7563 17.2326 11.8485 17.1706 11.9259 17.0925L15.2593 13.7591C15.3374 13.6817 15.3994 13.5895 15.4417 13.488C15.484 13.3864 15.5058 13.2775 15.5058 13.1675C15.5058 13.0575 15.484 12.9485 15.4417 12.847C15.3994 12.7454 15.3374 12.6533 15.2593 12.5758L11.9259 9.24247Z" fill="white"/>
</svg>
