<svg width="18" height="18" viewBox="0 0 18 18" fill="none" xmlns="http://www.w3.org/2000/svg">
<path d="M7.88626 0.652272C7.68373 0.359795 7.32939 0.21917 6.98624 0.303522C3.03751 1.27664 0.28125 4.80353 0.28125 8.88165C0.28125 13.7529 4.24687 17.7185 9.11814 17.7185C13.1963 17.7185 16.7231 14.9623 17.6963 11.0135C17.7806 10.6704 17.64 10.316 17.3475 10.1135C17.0606 9.91666 16.6725 9.92229 16.3856 10.1248C15.345 10.8617 14.1244 11.2554 12.8531 11.2554C9.48374 11.2554 6.74436 8.51604 6.74436 5.14664C6.74437 3.87542 7.13812 2.65477 7.875 1.61416C8.07749 1.32728 8.08312 0.939153 7.88626 0.652272Z" fill="white"/>
</svg>
