<svg width="18" height="18" viewBox="0 0 18 18" fill="none" xmlns="http://www.w3.org/2000/svg">
<g clip-path="url(#clip0_1_530)">
<path d="M17.625 8.25H14.2283C14.1475 7.22109 13.7411 6.24465 13.068 5.46225L15.4733 3.05625C15.5416 2.98552 15.5794 2.8908 15.5785 2.79247C15.5776 2.69415 15.5382 2.6001 15.4687 2.53057C15.3992 2.46104 15.3051 2.4216 15.2068 2.42075C15.1085 2.41989 15.0137 2.45769 14.943 2.526L12.54 4.92975C11.7614 4.24961 10.7814 3.84314 9.75 3.7725V0.375C9.75 0.275544 9.71049 0.180161 9.64017 0.109835C9.56984 0.0395088 9.47446 0 9.375 0C9.27554 0 9.18016 0.0395088 9.10983 0.109835C9.03951 0.180161 9 0.275544 9 0.375V3.77025C7.866 3.88125 6.9495 4.30725 6.216 4.93575L3.80625 2.526C3.73552 2.45769 3.6408 2.41989 3.54247 2.42075C3.44415 2.4216 3.3501 2.46104 3.28057 2.53057C3.21104 2.6001 3.1716 2.69415 3.17075 2.79247C3.16989 2.8908 3.20769 2.98552 3.276 3.05625L5.68575 5.466C5.01423 6.24733 4.60983 7.22273 4.5315 8.25H1.125C1.02554 8.25 0.930161 8.28951 0.859835 8.35983C0.789509 8.43016 0.75 8.52554 0.75 8.625C0.75 8.72446 0.789509 8.81984 0.859835 8.89017C0.930161 8.96049 1.02554 9 1.125 9H4.51875C4.59782 10.0302 5.00379 11.0082 5.6775 11.7915L3.276 14.1937C3.20769 14.2645 3.16989 14.3592 3.17075 14.4575C3.1716 14.5558 3.21104 14.6499 3.28057 14.7194C3.3501 14.789 3.44415 14.8284 3.54247 14.8293C3.6408 14.8301 3.73552 14.7923 3.80625 14.724L6.20775 12.3218C6.99093 12.9958 7.96897 13.4021 8.99925 13.4813V16.875C8.99925 16.9745 9.03876 17.0698 9.10909 17.1402C9.17941 17.2105 9.27479 17.25 9.37425 17.25C9.47371 17.25 9.56909 17.2105 9.63941 17.1402C9.70974 17.0698 9.74925 16.9745 9.74925 16.875V13.4715C10.7778 13.3937 11.7547 12.9895 12.5377 12.318L14.943 14.724C14.9777 14.7591 15.019 14.7869 15.0645 14.8059C15.11 14.8249 15.1588 14.8347 15.2081 14.8347C15.2574 14.8347 15.3063 14.8249 15.3518 14.8059C15.3973 14.7869 15.4386 14.7591 15.4733 14.724C15.5436 14.6537 15.583 14.5583 15.583 14.4589C15.583 14.3594 15.5436 14.2641 15.4733 14.1937L13.0695 11.79C13.7873 10.956 14.1337 10.077 14.2208 9H17.625C17.7245 9 17.8198 8.96049 17.8902 8.89017C17.9605 8.81984 18 8.72446 18 8.625C18 8.52554 17.9605 8.43016 17.8902 8.35983C17.8198 8.28951 17.7245 8.25 17.625 8.25ZM13.2525 10.0275C10.5975 10.6125 8.25 8.565 8.25 6C8.25 5.52 8.3325 5.0475 8.4975 4.5975C9.17405 4.44747 9.87758 4.47119 10.5425 4.66647C11.2074 4.86174 11.812 5.22221 12.3 5.71425C13.0631 6.49167 13.4935 7.53567 13.5 8.625C13.5 9.105 13.4175 9.5775 13.2525 10.0275Z" fill="black"/>
</g>
<defs>
<clipPath id="clip0_1_530">
<rect width="18" height="18" fill="white"/>
</clipPath>
</defs>
</svg>
