<svg width="20" height="20" viewBox="0 0 20 20" fill="none" xmlns="http://www.w3.org/2000/svg">
<path d="M8 11.499L7.5 11.498V11.499H8ZM12.5 11.499H13L12.5 11.498V11.499Z" fill="#ADFF00"/>
<path d="M18.07 10.0004C18.07 8.89737 17.173 8.00037 16.07 8.00037C15.629 8.00037 15.21 8.14437 14.868 8.40537C13.752 7.63037 12.29 7.16837 10.735 7.05137L11.574 5.08337L14.015 5.65337C14.093 6.40837 14.725 7.00037 15.5 7.00037C16.327 7.00037 17 6.32737 17 5.50037C17 4.67337 16.327 4.00037 15.5 4.00037C14.976 4.00037 14.515 4.27137 14.247 4.68037L11.394 4.01337C11.2792 3.98628 11.1586 4.00063 11.0534 4.05388C10.9482 4.10713 10.8651 4.19585 10.819 4.30437L9.659 7.02437C7.98 7.08237 6.38 7.55537 5.172 8.37937C4.87322 8.16419 4.52088 8.03557 4.15373 8.00766C3.78659 7.97975 3.41885 8.05364 3.09098 8.2212C2.7631 8.38875 2.48779 8.64348 2.29531 8.95738C2.10284 9.27127 2.00065 9.63217 2 10.0004C1.99924 10.3528 2.09253 10.699 2.27026 11.0033C2.44798 11.3076 2.7037 11.5589 3.011 11.7314C3.00328 11.8208 2.99961 11.9106 3 12.0004C3 14.7574 6.14001 17.0004 10 17.0004C13.859 17.0004 17 14.7574 17 12.0004C17 11.9224 16.997 11.8454 16.992 11.7684C17.3174 11.6019 17.5903 11.3486 17.7805 11.0365C17.9708 10.7245 18.071 10.3659 18.07 10.0004ZM15.5 5.00037C15.6329 5.00064 15.7602 5.05368 15.854 5.14782C15.9477 5.24196 16.0003 5.3695 16 5.50237C15.9997 5.63525 15.9467 5.76257 15.8526 5.85634C15.7584 5.95011 15.6309 6.00264 15.498 6.00237C15.4322 6.00224 15.3671 5.98915 15.3064 5.96385C15.2456 5.93855 15.1905 5.90154 15.144 5.85493C15.0976 5.80831 15.0608 5.75301 15.0358 5.69217C15.0107 5.63134 14.9979 5.56616 14.998 5.50037C14.9981 5.43458 15.0112 5.36946 15.0365 5.30872C15.0618 5.24799 15.0988 5.19283 15.1455 5.1464C15.1921 5.09998 15.2474 5.06318 15.3082 5.03813C15.369 5.01307 15.4342 5.00024 15.5 5.00037ZM6.5 11.5004C6.5 10.9494 6.949 10.5004 7.5 10.5004C8.051 10.5004 8.5 10.9494 8.5 11.5004C8.48849 11.7579 8.3781 12.001 8.19182 12.1791C8.00555 12.3572 7.75774 12.4566 7.5 12.4566C7.24227 12.4566 6.99446 12.3572 6.80819 12.1791C6.62191 12.001 6.51152 11.7579 6.5 11.5004ZM12.309 14.8174C11.6374 15.3039 10.8293 15.5658 10 15.5658C9.17071 15.5658 8.36261 15.3039 7.691 14.8174C7.63618 14.7796 7.58946 14.7312 7.55359 14.675C7.51773 14.6189 7.49344 14.5562 7.48215 14.4905C7.47086 14.4249 7.47279 14.3577 7.48785 14.2928C7.5029 14.2279 7.53077 14.1667 7.56981 14.1127C7.60885 14.0588 7.65828 14.0131 7.71519 13.9785C7.77211 13.9439 7.83536 13.9211 7.90124 13.9112C7.96712 13.9014 8.0343 13.9049 8.09882 13.9214C8.16335 13.9379 8.22393 13.9671 8.277 14.0074C8.77792 14.371 9.38103 14.5668 10 14.5668C10.619 14.5668 11.2221 14.371 11.723 14.0074C11.7761 13.9671 11.8367 13.9379 11.9012 13.9214C11.9657 13.9049 12.0329 13.9014 12.0988 13.9112C12.1646 13.9211 12.2279 13.9439 12.2848 13.9785C12.3417 14.0131 12.3912 14.0588 12.4302 14.1127C12.4692 14.1667 12.4971 14.2279 12.5122 14.2928C12.5272 14.3577 12.5292 14.4249 12.5179 14.4905C12.5066 14.5562 12.4823 14.6189 12.4464 14.675C12.4106 14.7312 12.3638 14.7796 12.309 14.8174ZM12.5 12.5004C12.2348 12.5004 11.9804 12.395 11.7929 12.2075C11.6054 12.0199 11.5 11.7656 11.5 11.5004C11.5 11.2352 11.6054 10.9808 11.7929 10.7933C11.9804 10.6057 12.2348 10.5004 12.5 10.5004C12.7652 10.5004 13.0196 10.6057 13.2071 10.7933C13.3946 10.9808 13.5 11.2352 13.5 11.5004C13.5 11.7656 13.3946 12.0199 13.2071 12.2075C13.0196 12.395 12.7652 12.5004 12.5 12.5004Z" fill="url(#paint0_linear_1_520)"/>
<defs>
<linearGradient id="paint0_linear_1_520" x1="18.07" y1="4" x2="1.65399" y2="4.45268" gradientUnits="userSpaceOnUse">
<stop stop-color="#ADFF00"/>
<stop offset="1" stop-color="#FFFF08"/>
</linearGradient>
</defs>
</svg>
